<svg enable-background="new 0 0 110 110" height="512" viewBox="0 0 110 110" width="512" xmlns="http://www.w3.org/2000/svg"><path d="m82.9385681 24.0928135h-55.87714c-1.4128704 0-2.5583172 1.1454086-2.5583172 2.5583172v33.8715439c0 1.4129105 1.1454468 2.5583191 2.5583172 2.5583191h55.87714c1.4128647 0 2.5583191-1.1454086 2.5583191-2.5583191v-33.8715439c0-1.4129086-1.1454544-2.5583172-2.5583191-2.5583172z" fill="#4d5c7d"/><path d="m28.558025 27.824965h52.883946v30.219397h-52.883946z" fill="#00abee"/><path d="m83.5219421 63.0809937h-57.0438842c-1.0906849 0-2.2790833.6654015-2.6627102 1.5047073l-8.568821 18.7470932c-.6413622 1.4031906.0100851 2.5743942 1.4739037 2.5743942h76.5591431c1.4638138 0 2.1152649-1.1712036 1.4738998-2.5743942l-8.5688191-18.7470932c-.3836288-.8393059-1.5720291-1.5047073-2.6627121-1.5047073z" fill="#474c5b"/><path d="m81.8536682 65.6850586h-53.7073364c-.7701225 0-1.5928555.4867554-1.8413811 1.0966873l-2.2764664 5.5868378c-.2948303.7235718.1584854 1.320343 1.0175209 1.320343h59.9079895c.8590317 0 1.312355-.5967712 1.0175171-1.320343l-2.2764664-5.5868378c-.2485198-.6099319-1.0712585-1.0966873-1.8413772-1.0966873z" fill="#4d5c7d"/><path d="m62.8914108 75.3469925h-15.7828216c-.8774529 0-1.6646881.6324692-1.7600212 1.4267731l-.4405289 3.670433c-.1063843.8863907.5775223 1.6187515 1.529583 1.6187515h17.1247559c.9520569 0 1.6359711-.7323608 1.5295868-1.6187515l-.4405289-3.670433c-.095337-.7943039-.8825722-1.4267731-1.7600251-1.4267731z" fill="#4d5c7d"/><path d="m80.877449 62.5164833h-51.111824c-.3116894 0-.5645084.2527046-.5645084.5645103 0 .3117638.2528191.5645065.5645084.5645065h51.111824c.3117599 0 .5645065-.2527428.5645065-.5645065.0000001-.3118057-.2527465-.5645103-.5645065-.5645103z" fill="#2f4859"/></svg>